<svg width="26" height="26" viewBox="0 0 26 26" fill="none" xmlns="http://www.w3.org/2000/svg">
<path d="M12.4797 15.3552L9.06595 11.9415C9.01886 11.8944 8.98177 11.8419 8.95469 11.7838C8.9276 11.7257 8.91406 11.6635 8.91406 11.5971C8.91406 11.4644 8.95895 11.349 9.04872 11.2511C9.13848 11.1532 9.25678 11.1042 9.40365 11.1042H16.5952C16.7421 11.1042 16.8604 11.1537 16.9502 11.2525C17.0399 11.3514 17.0848 11.4667 17.0848 11.5985C17.0848 11.6315 17.0341 11.7459 16.9327 11.9417L13.5192 15.3552C13.4408 15.4337 13.3596 15.491 13.2759 15.5271C13.1921 15.5632 13.1 15.5813 12.9994 15.5813C12.8989 15.5813 12.8068 15.5632 12.723 15.5271C12.6392 15.491 12.5581 15.4337 12.4797 15.3552Z" fill="#333236"/>
</svg>
