<svg width="43" height="15" viewBox="0 0 43 15" fill="none" xmlns="http://www.w3.org/2000/svg">
<path d="M7.71822 14.7393V12.3491H6.22437V14.7393H7.71822Z" fill="#FF4646"/>
<path d="M11.513 13.1781L9.92856 11.488L10.9849 10.3613L12.5693 12.0514L11.513 13.1781Z" fill="#FF4646"/>
<path d="M11.513 1.59716L9.92856 3.28725L10.9849 4.41399L12.5693 2.72389L11.513 1.59716Z" fill="#FF4646"/>
<path d="M2.52001 1.59716L4.10448 3.28725L3.04817 4.41399L1.4637 2.72389L2.52001 1.59716Z" fill="#FF4646"/>
<path d="M2.52001 13.1781L4.10448 11.488L3.04817 10.3613L1.4637 12.0514L2.52001 13.1781Z" fill="#FF4646"/>
<path d="M13.8181 8.3655V6.77206H11.5773V8.3655H13.8181Z" fill="#FF4646"/>
<path d="M2.24077 8.3655V6.77206H0V8.3655H2.24077Z" fill="#FF4646"/>
<path d="M7.71822 2.39011V-5.16772e-05H6.22437V2.39011H7.71822Z" fill="#FF4646"/>
<path d="M10.4569 7.30321C10.4569 5.2498 8.89636 3.58519 6.97129 3.58519C5.04622 3.58519 3.48565 5.2498 3.48565 7.30321C3.48565 9.35662 5.04622 11.0212 6.97129 11.0212C8.89636 11.0212 10.4569 9.35662 10.4569 7.30321Z" fill="#FF4646"/>
<path d="M34.4453 1C34.2709 1.57556 34.1758 2.18587 34.1758 2.81836C34.1758 6.27799 36.9808 9.08301 40.4404 9.08301C41.0726 9.083 41.6825 8.98767 42.2578 8.81348C41.4782 11.3856 39.0904 13.2588 36.2637 13.2588C32.8042 13.2587 30 10.4537 30 6.99414C30.0001 4.16726 31.8729 1.77941 34.4453 1Z" fill="#FFF7DF"/>
</svg>
