<svg width="544" height="404" viewBox="0 0 544 404" fill="none" xmlns="http://www.w3.org/2000/svg">
<rect width="544" height="404" rx="8" fill="white"/>
<path d="M40.0156 113.297H38.7812V99.375H40.0156V113.297ZM32.625 100.453C33.3125 100.458 33.9245 100.661 34.4609 101.062C34.9974 101.458 35.4167 102.021 35.7188 102.75C36.0208 103.479 36.1719 104.328 36.1719 105.297C36.1719 106.266 36.0208 107.115 35.7188 107.844C35.4167 108.573 34.9974 109.135 34.4609 109.531C33.9245 109.927 33.3125 110.125 32.625 110.125C31.9375 110.125 31.3229 109.927 30.7812 109.531C30.2448 109.135 29.8255 108.573 29.5234 107.844C29.2266 107.115 29.0781 106.266 29.0781 105.297C29.0781 104.328 29.2266 103.479 29.5234 102.75C29.8255 102.021 30.2448 101.458 30.7812 101.062C31.3177 100.661 31.9323 100.458 32.625 100.453ZM32.625 101.547C32.1615 101.552 31.75 101.711 31.3906 102.023C31.0365 102.331 30.7604 102.768 30.5625 103.336C30.3646 103.898 30.2656 104.552 30.2656 105.297C30.2656 106.042 30.3646 106.698 30.5625 107.266C30.7604 107.828 31.0391 108.263 31.3984 108.57C31.7578 108.878 32.1667 109.031 32.625 109.031C33.0833 109.031 33.4922 108.878 33.8516 108.57C34.2109 108.263 34.4896 107.828 34.6875 107.266C34.8854 106.698 34.9844 106.042 34.9844 105.297C34.9844 104.552 34.8854 103.898 34.6875 103.336C34.4896 102.768 34.2109 102.331 33.8516 102.023C33.4974 101.711 33.0885 101.552 32.625 101.547ZM55.0938 107.562H42.375V106.547H55.0938V107.562ZM53.4531 103H45.25V104.391H53.75V105.344H44.0312V102.078H52.2188V100.703H43.9844V99.7188H53.4531V103ZM53.4531 113.078H44.1094V108.828H53.4531V113.078ZM45.3125 112.078H52.25V109.828H45.3125V112.078Z" fill="#9FA6B2"/>
<path d="M0 190H544" stroke="#EEEEEE"/>
<path d="M0 330H544" stroke="#EEEEEE"/>
<circle cx="47" cy="155" r="18" fill="#C4B1A2" stroke="white" stroke-width="2"/>
<path d="M90.0781 156.656H88.8438V153.016H86.0469V152H88.8438V148.375H90.0781V156.656ZM85.4688 157.094C86.4323 157.094 87.263 157.195 87.9609 157.398C88.6589 157.602 89.1927 157.896 89.5625 158.281C89.9375 158.667 90.125 159.13 90.125 159.672C90.125 160.214 89.9375 160.677 89.5625 161.062C89.1927 161.453 88.6589 161.75 87.9609 161.953C87.263 162.156 86.4323 162.26 85.4688 162.266C84.5052 162.26 83.6745 162.156 82.9766 161.953C82.2786 161.75 81.7422 161.453 81.3672 161.062C80.9974 160.677 80.8125 160.214 80.8125 159.672C80.8125 159.13 80.9974 158.667 81.3672 158.281C81.7422 157.896 82.2786 157.602 82.9766 157.398C83.6745 157.195 84.5052 157.094 85.4688 157.094ZM85.4688 158.047C84.7656 158.047 84.1536 158.112 83.6328 158.242C83.112 158.372 82.7135 158.56 82.4375 158.805C82.1615 159.049 82.026 159.339 82.0312 159.672C82.026 160 82.1615 160.286 82.4375 160.531C82.7135 160.771 83.112 160.956 83.6328 161.086C84.1536 161.216 84.7656 161.281 85.4688 161.281C86.1719 161.281 86.7812 161.216 87.2969 161.086C87.8177 160.956 88.2161 160.771 88.4922 160.531C88.7682 160.286 88.9062 160 88.9062 159.672C88.9062 159.339 88.7682 159.049 88.4922 158.805C88.2161 158.56 87.8177 158.372 87.2969 158.242C86.7812 158.112 86.1719 158.047 85.4688 158.047ZM83.3906 150.922C83.3906 151.521 83.5339 152.102 83.8203 152.664C84.1068 153.221 84.5078 153.719 85.0234 154.156C85.5443 154.589 86.1406 154.922 86.8125 155.156L86.1719 156.141C85.3958 155.859 84.7135 155.443 84.125 154.891C83.5417 154.339 83.1016 153.701 82.8047 152.977C82.5026 153.789 82.0417 154.508 81.4219 155.133C80.8073 155.753 80.0885 156.219 79.2656 156.531L78.625 155.547C79.3073 155.297 79.9167 154.938 80.4531 154.469C80.9896 153.995 81.4062 153.451 81.7031 152.836C82.0052 152.221 82.1562 151.589 82.1562 150.938V150.422H79.0156V149.391H86.5V150.422H83.3906V150.922ZM99.4062 156.031H92.9844V149.641H99.4062V156.031ZM94.1875 155.047H98.2188V150.641H94.1875V155.047ZM103.25 152.609H105.344V153.641H103.25V158.562H102.031V148.375H103.25V152.609ZM103.891 161.969H94.5625V157.594H95.7656V160.938H103.891V161.969ZM110.953 151.109C110.953 151.609 111.109 152.086 111.422 152.539C111.74 152.987 112.172 153.378 112.719 153.711C113.271 154.044 113.891 154.292 114.578 154.453L114.016 155.391C113.177 155.188 112.44 154.862 111.805 154.414C111.169 153.961 110.695 153.424 110.383 152.805C110.076 153.482 109.604 154.07 108.969 154.57C108.333 155.065 107.589 155.432 106.734 155.672L106.172 154.719C106.859 154.531 107.474 154.258 108.016 153.898C108.557 153.539 108.982 153.12 109.289 152.641C109.596 152.156 109.75 151.646 109.75 151.109V150.781H106.609V149.781H109.75V148.312H110.984V149.781H114.094V150.781H110.953V151.109ZM117.719 155.672H116.5V152.844H113.672V151.844H116.5V148.375H117.719V155.672ZM117.719 159.625H109.969V161.125H118.25V162.109H108.75V158.688H116.5V157.312H108.719V156.344H117.719V159.625Z" fill="#333236"/>
<path d="M46.5293 161.16C45.8146 161.16 45.1533 161.021 44.5453 160.744C43.9479 160.467 43.4573 160.067 43.0732 159.544L44.2573 158.12C44.5666 158.547 44.9026 158.867 45.2653 159.08C45.6386 159.293 46.0439 159.4 46.4813 159.4C47.6439 159.4 48.2253 158.712 48.2253 157.336V151.544H44.2413V149.8H50.3053V157.224C50.3053 158.547 49.9799 159.533 49.3293 160.184C48.6893 160.835 47.7559 161.16 46.5293 161.16Z" fill="white"/>
<rect x="432.5" y="139.5" width="83" height="31" rx="3.5" fill="white"/>
<rect x="432.5" y="139.5" width="83" height="31" rx="3.5" stroke="#D9D9D9"/>
<path d="M466.604 150.867C466.604 152.46 467.731 153.957 469.584 154.572L468.914 155.584C467.533 155.119 466.515 154.148 465.981 152.925C465.448 154.258 464.402 155.297 462.953 155.803L462.283 154.777C464.204 154.128 465.312 152.535 465.318 150.758V149.541H466.604V150.867ZM463.883 157.949V156.896H471.977V161.162H470.678V157.949H463.883ZM470.678 156.336V148.912H471.977V152.07H473.754V153.164H471.977V156.336H470.678ZM484.965 148.912V161.162H483.721V148.912H484.965ZM474.273 157.785C476.01 156.739 476.892 154.511 476.898 152.33V151.346H474.643V150.293H480.248V151.346H478.143V152.33C478.143 154.422 478.99 156.521 480.713 157.512L479.934 158.469C478.765 157.771 477.965 156.521 477.534 155.044C477.097 156.644 476.263 158.011 475.066 158.756L474.273 157.785ZM479.346 154.312V153.246H481.246V149.172H482.477V160.547H481.246V154.312H479.346Z" fill="#228DFF"/>
<circle cx="47" cy="295" r="18" fill="#FDD446" stroke="white" stroke-width="2"/>
<path d="M83.8281 298.258C85.276 298.19 86.6042 298.068 87.8125 297.891L87.9062 298.797C86.5104 299.052 85.0859 299.216 83.6328 299.289C82.1849 299.357 80.5781 299.391 78.8125 299.391L78.6406 298.375C80.3698 298.365 81.6979 298.344 82.625 298.312V295.703H83.8281V298.258ZM87.0938 291.219H83.8281C83.8385 291.807 83.9974 292.359 84.3047 292.875C84.612 293.385 85.0339 293.828 85.5703 294.203C86.1068 294.578 86.7188 294.865 87.4062 295.062L86.8281 296.031C85.9896 295.781 85.2578 295.398 84.6328 294.883C84.0078 294.367 83.5391 293.758 83.2266 293.055C82.9297 293.794 82.4688 294.432 81.8438 294.969C81.224 295.505 80.4948 295.901 79.6562 296.156L79.0625 295.219C79.75 295.016 80.3568 294.719 80.8828 294.328C81.4141 293.938 81.8281 293.477 82.125 292.945C82.4271 292.409 82.5833 291.833 82.5938 291.219H79.4062V290.203H82.625V288.484H83.8281V290.203H87.0938V291.219ZM89.9531 302.297H88.7344V288.375H89.9531V302.297ZM99.4062 290.344C99.401 290.938 99.6328 291.505 100.102 292.047C100.57 292.583 101.182 293.036 101.938 293.406C102.693 293.776 103.479 294.021 104.297 294.141L103.844 295.109C103.109 294.984 102.401 294.776 101.719 294.484C101.042 294.193 100.44 293.828 99.9141 293.391C99.388 292.948 98.9896 292.456 98.7188 291.914C98.4479 292.456 98.0495 292.945 97.5234 293.383C96.9974 293.82 96.3958 294.188 95.7188 294.484C95.0469 294.776 94.349 294.984 93.625 295.109L93.1406 294.141C93.9531 294.021 94.737 293.776 95.4922 293.406C96.2474 293.036 96.8594 292.583 97.3281 292.047C97.7969 291.505 98.0312 290.938 98.0312 290.344V290.25H93.5781V289.25H103.844V290.25H99.4062V290.344ZM105.047 297.312H99.2969V302.266H98.0938V297.312H92.3906V296.297H105.047V297.312ZM114.094 290.797H106.234V289.781H109.609V288.25H110.828V289.781H114.094V290.797ZM110.203 291.469C110.818 291.469 111.365 291.573 111.844 291.781C112.328 291.99 112.703 292.284 112.969 292.664C113.24 293.044 113.375 293.484 113.375 293.984C113.375 294.479 113.24 294.914 112.969 295.289C112.703 295.664 112.328 295.956 111.844 296.164C111.365 296.367 110.818 296.469 110.203 296.469C109.583 296.469 109.034 296.367 108.555 296.164C108.081 295.956 107.711 295.664 107.445 295.289C107.185 294.914 107.057 294.479 107.062 293.984C107.057 293.484 107.185 293.044 107.445 292.664C107.711 292.284 108.081 291.99 108.555 291.781C109.034 291.573 109.583 291.469 110.203 291.469ZM110.203 292.422C109.807 292.422 109.458 292.487 109.156 292.617C108.854 292.747 108.62 292.932 108.453 293.172C108.286 293.406 108.203 293.677 108.203 293.984C108.203 294.292 108.286 294.562 108.453 294.797C108.62 295.031 108.854 295.216 109.156 295.352C109.458 295.482 109.807 295.547 110.203 295.547C110.599 295.547 110.948 295.482 111.25 295.352C111.557 295.216 111.797 295.031 111.969 294.797C112.141 294.562 112.229 294.292 112.234 293.984C112.229 293.677 112.141 293.406 111.969 293.172C111.797 292.932 111.557 292.747 111.25 292.617C110.948 292.487 110.599 292.422 110.203 292.422ZM117.734 296.594H116.5V295.359H114.078V294.344H116.5V292.641H114.094V291.625H116.5V288.375H117.734V296.594ZM109.906 298.641H116.516V297.172H117.734V302.078H108.688V297.172H109.906V298.641ZM116.516 301.094V299.594H109.906V301.094H116.516Z" fill="#333236"/>
<path d="M47.8755 301.16C47.0222 301.16 46.2275 301.021 45.4915 300.744C44.7662 300.456 44.1315 300.056 43.5875 299.544C43.0542 299.021 42.6382 298.408 42.3395 297.704C42.0408 297 41.8915 296.232 41.8915 295.4C41.8915 294.568 42.0408 293.8 42.3395 293.096C42.6382 292.392 43.0595 291.784 43.6035 291.272C44.1475 290.749 44.7822 290.349 45.5075 290.072C46.2328 289.784 47.0275 289.64 47.8915 289.64C48.8088 289.64 49.6462 289.8 50.4035 290.12C51.1608 290.429 51.8008 290.893 52.3235 291.512L50.9795 292.776C50.5742 292.339 50.1208 292.013 49.6195 291.8C49.1182 291.576 48.5742 291.464 47.9875 291.464C47.4008 291.464 46.8622 291.56 46.3715 291.752C45.8915 291.944 45.4702 292.216 45.1075 292.568C44.7555 292.92 44.4782 293.336 44.2755 293.816C44.0835 294.296 43.9875 294.824 43.9875 295.4C43.9875 295.976 44.0835 296.504 44.2755 296.984C44.4782 297.464 44.7555 297.88 45.1075 298.232C45.4702 298.584 45.8915 298.856 46.3715 299.048C46.8622 299.24 47.4008 299.336 47.9875 299.336C48.5742 299.336 49.1182 299.229 49.6195 299.016C50.1208 298.792 50.5742 298.456 50.9795 298.008L52.3235 299.288C51.8008 299.896 51.1608 300.36 50.4035 300.68C49.6462 301 48.8035 301.16 47.8755 301.16Z" fill="white"/>
<rect x="432.5" y="279.5" width="83" height="31" rx="3.5" fill="white"/>
<rect x="432.5" y="279.5" width="83" height="31" rx="3.5" stroke="#D9D9D9"/>
<path d="M466.604 290.867C466.604 292.46 467.731 293.957 469.584 294.572L468.914 295.584C467.533 295.119 466.515 294.148 465.981 292.925C465.448 294.258 464.402 295.297 462.953 295.803L462.283 294.777C464.204 294.128 465.312 292.535 465.318 290.758V289.541H466.604V290.867ZM463.883 297.949V296.896H471.977V301.162H470.678V297.949H463.883ZM470.678 296.336V288.912H471.977V292.07H473.754V293.164H471.977V296.336H470.678ZM484.965 288.912V301.162H483.721V288.912H484.965ZM474.273 297.785C476.01 296.739 476.892 294.511 476.898 292.33V291.346H474.643V290.293H480.248V291.346H478.143V292.33C478.143 294.422 478.99 296.521 480.713 297.512L479.934 298.469C478.765 297.771 477.965 296.521 477.534 295.044C477.097 296.644 476.263 298.011 475.066 298.756L474.273 297.785ZM479.346 294.312V293.246H481.246V289.172H482.477V300.547H481.246V294.312H479.346Z" fill="#228DFF"/>
<path d="M0 260H544" stroke="#EEEEEE"/>
<circle cx="47" cy="225" r="18" fill="#9DD7ED" stroke="white" stroke-width="2"/>
<path d="M85.8906 219.281C85.8906 220.432 85.6198 221.477 85.0781 222.414C84.5417 223.352 83.7734 224.154 82.7734 224.82C81.7786 225.487 80.5938 226.005 79.2188 226.375L78.7188 225.406C79.8646 225.104 80.8594 224.703 81.7031 224.203C82.5521 223.703 83.2214 223.122 83.7109 222.461C84.2057 221.794 84.4974 221.068 84.5859 220.281H79.4531V219.281H85.8906ZM90.0312 226.234H88.8125V218.391H90.0312V226.234ZM90.0312 232.078H81V226.906H90.0312V232.078ZM82.2031 231.078H88.8281V227.891H82.2031V231.078ZM98.4531 220.984H94.125V223.656H98.25V224.641H94.125V227.781C95.2344 227.776 96.1406 227.753 96.8438 227.711C97.5469 227.664 98.2604 227.573 98.9844 227.438L99.0938 228.453C98.3177 228.604 97.5495 228.706 96.7891 228.758C96.0339 228.805 95.0521 228.828 93.8438 228.828H92.9531V219.984H98.4531V220.984ZM104.297 232.266H103.109V224.984H101.203V231.562H100.016V218.672H101.203V223.969H103.109V218.375H104.297V232.266ZM113.188 219.438C113.188 220.021 113.427 220.583 113.906 221.125C114.385 221.667 115.005 222.13 115.766 222.516C116.531 222.901 117.318 223.156 118.125 223.281L117.641 224.25C116.932 224.13 116.242 223.924 115.57 223.633C114.904 223.336 114.307 222.971 113.781 222.539C113.255 222.102 112.849 221.62 112.562 221.094C112.281 221.63 111.875 222.117 111.344 222.555C110.818 222.992 110.219 223.357 109.547 223.648C108.875 223.94 108.182 224.146 107.469 224.266L106.984 223.297C107.802 223.172 108.591 222.919 109.352 222.539C110.112 222.159 110.729 221.698 111.203 221.156C111.682 220.609 111.922 220.036 111.922 219.438V218.734H113.188V219.438ZM118.922 226.469H113.266V229.312H112.047V226.469H106.203V225.453H118.922V226.469ZM117.5 231.969H107.828V227.953H109.062V230.938H117.5V231.969Z" fill="#333236"/>
<path d="M44.5319 228.36L44.4199 225.896L50.2919 219.8H52.6279L47.7479 224.984L46.5959 226.248L44.5319 228.36ZM42.6759 231V219.8H44.7559V231H42.6759ZM50.4839 231L46.1959 225.896L47.5719 224.376L52.9159 231H50.4839Z" fill="white"/>
<rect x="432.5" y="209.5" width="83" height="31" rx="3.5" fill="white"/>
<rect x="432.5" y="209.5" width="83" height="31" rx="3.5" stroke="#D9D9D9"/>
<path d="M466.604 220.867C466.604 222.46 467.731 223.957 469.584 224.572L468.914 225.584C467.533 225.119 466.515 224.148 465.981 222.925C465.448 224.258 464.402 225.297 462.953 225.803L462.283 224.777C464.204 224.128 465.312 222.535 465.318 220.758V219.541H466.604V220.867ZM463.883 227.949V226.896H471.977V231.162H470.678V227.949H463.883ZM470.678 226.336V218.912H471.977V222.07H473.754V223.164H471.977V226.336H470.678ZM484.965 218.912V231.162H483.721V218.912H484.965ZM474.273 227.785C476.01 226.739 476.892 224.511 476.898 222.33V221.346H474.643V220.293H480.248V221.346H478.143V222.33C478.143 224.422 478.99 226.521 480.713 227.512L479.934 228.469C478.765 227.771 477.965 226.521 477.534 225.044C477.097 226.644 476.263 228.011 475.066 228.756L474.273 227.785ZM479.346 224.312V223.246H481.246V219.172H482.477V230.547H481.246V224.312H479.346Z" fill="#228DFF"/>
<circle cx="47" cy="365" r="18" fill="#FFC85A" stroke="white" stroke-width="2"/>
<path d="M84.8906 358.734C85.875 358.74 86.7344 358.857 87.4688 359.086C88.2083 359.31 88.7786 359.63 89.1797 360.047C89.5807 360.464 89.7812 360.953 89.7812 361.516C89.7812 362.078 89.5807 362.568 89.1797 362.984C88.7786 363.396 88.2083 363.714 87.4688 363.938C86.7344 364.156 85.875 364.266 84.8906 364.266C83.9062 364.266 83.0443 364.156 82.3047 363.938C81.5651 363.714 80.9922 363.396 80.5859 362.984C80.1849 362.568 79.9844 362.078 79.9844 361.516C79.9844 360.953 80.1849 360.464 80.5859 360.047C80.9922 359.63 81.5651 359.31 82.3047 359.086C83.0443 358.857 83.9062 358.74 84.8906 358.734ZM84.8906 359.734C84.1771 359.734 83.5469 359.807 83 359.953C82.4583 360.099 82.0365 360.307 81.7344 360.578C81.4375 360.844 81.2917 361.156 81.2969 361.516C81.2917 361.875 81.4375 362.188 81.7344 362.453C82.0312 362.719 82.4505 362.924 82.9922 363.07C83.5391 363.211 84.1719 363.281 84.8906 363.281C85.6042 363.281 86.2318 363.211 86.7734 363.07C87.3203 362.924 87.7422 362.719 88.0391 362.453C88.3359 362.188 88.4844 361.875 88.4844 361.516C88.4844 361.156 88.3359 360.844 88.0391 360.578C87.7422 360.307 87.3203 360.099 86.7734 359.953C86.2318 359.807 85.6042 359.734 84.8906 359.734ZM91.2344 366.359H87.9844V369.25H86.7656V366.359H84.2031V369.25H82.9844V366.359H78.5625V365.344H91.2344V366.359ZM89.9219 371.969H80.125V368.078H81.3594V370.938H89.9219V371.969ZM97.3594 362.641C97.3594 363.406 97.5286 364.169 97.8672 364.93C98.2057 365.685 98.6615 366.359 99.2344 366.953C99.8125 367.542 100.443 367.984 101.125 368.281L100.438 369.25C99.6198 368.875 98.8828 368.31 98.2266 367.555C97.5703 366.794 97.0807 365.938 96.7578 364.984C96.4349 366.005 95.9453 366.93 95.2891 367.758C94.638 368.581 93.9167 369.193 93.125 369.594L92.3906 368.625C93.0469 368.307 93.6589 367.828 94.2266 367.188C94.7995 366.547 95.2578 365.826 95.6016 365.023C95.9453 364.216 96.1198 363.422 96.125 362.641V360.828H92.8438V359.812H100.672V360.828H97.3594V362.641ZM103.844 372.266H102.609V358.375H103.844V372.266ZM117.734 368.984H116.5V366H114.094V365H116.5V363.109H114.094V362.094H116.5V358.391H117.734V368.984ZM114.094 361.094H106.234V360.094H109.609V358.375H110.828V360.094H114.094V361.094ZM110.203 361.859C110.818 361.859 111.365 361.971 111.844 362.195C112.328 362.414 112.703 362.724 112.969 363.125C113.24 363.526 113.375 363.99 113.375 364.516C113.375 365.036 113.24 365.497 112.969 365.898C112.703 366.299 112.328 366.612 111.844 366.836C111.365 367.06 110.818 367.172 110.203 367.172C109.589 367.172 109.042 367.06 108.562 366.836C108.089 366.612 107.719 366.299 107.453 365.898C107.188 365.497 107.057 365.036 107.062 364.516C107.057 363.99 107.188 363.526 107.453 363.125C107.719 362.724 108.089 362.414 108.562 362.195C109.042 361.971 109.589 361.859 110.203 361.859ZM110.203 362.828C109.812 362.833 109.464 362.906 109.156 363.047C108.854 363.188 108.62 363.385 108.453 363.641C108.286 363.896 108.203 364.188 108.203 364.516C108.203 364.844 108.286 365.135 108.453 365.391C108.62 365.641 108.854 365.836 109.156 365.977C109.464 366.117 109.812 366.188 110.203 366.188C110.594 366.188 110.94 366.117 111.242 365.977C111.549 365.836 111.786 365.641 111.953 365.391C112.125 365.135 112.214 364.844 112.219 364.516C112.214 364.188 112.125 363.896 111.953 363.641C111.786 363.385 111.549 363.188 111.242 363.047C110.94 362.906 110.594 362.833 110.203 362.828ZM118.047 371.969H108.75V368.047H109.984V370.938H118.047V371.969Z" fill="#333236"/>
<path d="M46.4669 371V366.568L46.9309 367.848L42.0669 359.8H44.2909L48.1949 366.28H46.9469L50.8829 359.8H52.9309L48.0669 367.848L48.5469 366.568V371H46.4669Z" fill="white"/>
<rect x="432.5" y="349.5" width="83" height="31" rx="3.5" fill="white"/>
<rect x="432.5" y="349.5" width="83" height="31" rx="3.5" stroke="#D9D9D9"/>
<path d="M466.604 360.867C466.604 362.46 467.731 363.957 469.584 364.572L468.914 365.584C467.533 365.119 466.515 364.148 465.981 362.925C465.448 364.258 464.402 365.297 462.953 365.803L462.283 364.777C464.204 364.128 465.312 362.535 465.318 360.758V359.541H466.604V360.867ZM463.883 367.949V366.896H471.977V371.162H470.678V367.949H463.883ZM470.678 366.336V358.912H471.977V362.07H473.754V363.164H471.977V366.336H470.678ZM484.965 358.912V371.162H483.721V358.912H484.965ZM474.273 367.785C476.01 366.739 476.892 364.511 476.898 362.33V361.346H474.643V360.293H480.248V361.346H478.143V362.33C478.143 364.422 478.99 366.521 480.713 367.512L479.934 368.469C478.765 367.771 477.965 366.521 477.534 365.044C477.097 366.644 476.263 368.011 475.066 368.756L474.273 367.785ZM479.346 364.312V363.246H481.246V359.172H482.477V370.547H481.246V364.312H479.346Z" fill="#228DFF"/>
<path d="M45.8125 38.9922C45.8125 40.3516 45.7812 41.5547 45.7188 42.6016C45.6562 43.6406 45.5039 44.8203 45.2617 46.1406H48.0859V48.5547H39.7656V57.1797H36.7656V48.5547H28.6328V46.1406H42.2383C42.4883 44.9062 42.6484 43.7773 42.7188 42.7539C42.7969 41.7227 42.8359 40.625 42.8359 39.4609H30.8594V37.0703H45.8125V38.9922ZM57.4375 38.7344C57.4297 39.7188 57.5977 40.6406 57.9414 41.5C58.293 42.3594 58.832 43.1172 59.5586 43.7734C60.293 44.4297 61.2109 44.9297 62.3125 45.2734L60.7422 47.6172C59.6172 47.2266 58.6562 46.6758 57.8594 45.9648C57.0703 45.2539 56.4492 44.4062 55.9961 43.4219C55.5039 44.5703 54.8203 45.5625 53.9453 46.3984C53.0703 47.2266 52.0078 47.8516 50.7578 48.2734L49.1875 45.8828C50.3594 45.5078 51.3359 44.9648 52.1172 44.2539C52.8984 43.5352 53.4727 42.7188 53.8398 41.8047C54.2148 40.8828 54.4062 39.9062 54.4141 38.875V36.9297H57.4375V38.7344ZM67.3516 48.3203H64.375V42.1797H60.3672V39.7422H64.375V35.8281H67.3516V48.3203ZM60.0625 48.8828C61.5703 48.8828 62.875 49.0469 63.9766 49.375C65.0781 49.7031 65.9258 50.1797 66.5195 50.8047C67.1133 51.4219 67.4141 52.1641 67.4219 53.0312C67.4141 53.8984 67.1133 54.6406 66.5195 55.2578C65.9258 55.875 65.0781 56.3438 63.9766 56.6641C62.8828 56.9922 61.5781 57.1562 60.0625 57.1562C58.5469 57.1562 57.2383 56.9922 56.1367 56.6641C55.043 56.3438 54.1992 55.875 53.6055 55.2578C53.0195 54.6406 52.7266 53.8984 52.7266 53.0312C52.7266 52.1641 53.0195 51.4219 53.6055 50.8047C54.1992 50.1797 55.0469 49.7031 56.1484 49.375C57.25 49.0469 58.5547 48.8828 60.0625 48.8828ZM60.0625 51.2031C58.6328 51.2031 57.5469 51.3555 56.8047 51.6602C56.0703 51.9648 55.7031 52.4219 55.7031 53.0312C55.7031 53.6172 56.0742 54.0664 56.8164 54.3789C57.5664 54.6836 58.6484 54.8359 60.0625 54.8359C61.4844 54.8359 62.5703 54.6836 63.3203 54.3789C64.0703 54.0664 64.4453 53.6172 64.4453 53.0312C64.4453 52.4297 64.0703 51.9766 63.3203 51.6719C62.5781 51.3594 61.4922 51.2031 60.0625 51.2031ZM88.1875 51.9531H85.1875V50.2656H81.1094V48.2266H85.1875V35.8516H88.1875V51.9531ZM88.6562 56.7812H72.7656V50.4062H75.7422V47.5703C74.2891 47.6328 72.5078 47.6641 70.3984 47.6641L70.0469 45.2969C72.7969 45.2812 75.2695 45.2344 77.4648 45.1562C79.6602 45.0781 81.75 44.9141 83.7344 44.6641L83.8984 46.7969C82.2734 47.0703 80.5547 47.2734 78.7422 47.4062V51.4609H75.7422V54.3906H88.6562V56.7812ZM76.9844 36.5781C78.0078 36.5703 78.9219 36.7266 79.7266 37.0469C80.5312 37.3672 81.1602 37.8203 81.6133 38.4062C82.0742 38.9844 82.3047 39.6484 82.3047 40.3984C82.3047 41.1406 82.0781 41.7969 81.625 42.3672C81.1719 42.9375 80.5391 43.3789 79.7266 43.6914C78.9219 43.9961 78.0078 44.1484 76.9844 44.1484C75.9375 44.1484 75.0078 43.9961 74.1953 43.6914C73.3828 43.3789 72.75 42.9414 72.2969 42.3789C71.8438 41.8086 71.6172 41.1484 71.6172 40.3984C71.6172 39.6484 71.8398 38.9844 72.2852 38.4062C72.7383 37.8203 73.3711 37.3672 74.1836 37.0469C75.0039 36.7266 75.9375 36.5703 76.9844 36.5781ZM76.9844 38.7578C76.2109 38.7578 75.5938 38.9023 75.1328 39.1914C74.6719 39.4805 74.4453 39.8828 74.4531 40.3984C74.4453 40.9062 74.668 41.3008 75.1211 41.582C75.582 41.8555 76.2031 41.9922 76.9844 41.9922C77.7188 41.9922 78.3125 41.8516 78.7656 41.5703C79.2266 41.2891 79.4609 40.8984 79.4688 40.3984C79.4609 39.8828 79.2266 39.4805 78.7656 39.1914C78.3125 38.9023 77.7188 38.7578 76.9844 38.7578Z" fill="#333236"/>
<path d="M352.43 51H351.186V42.3867H351.131L348.725 43.9863V42.7422L351.186 41.1016H352.43V51ZM368.604 52.1074H367.564V39.9531H368.604V52.1074ZM366.225 51.4648H365.199V45.5449H363.504V44.5742H365.199V40.2539H366.225V51.4648ZM363.859 42.4004H362.834V48.0264C363.34 47.9899 363.773 47.9466 364.133 47.8965L364.201 48.6895C362.729 48.9629 360.71 49.0996 358.145 49.0996L358.008 48.1836C358.55 48.1836 358.979 48.1813 359.293 48.1768V42.4004H358.268V41.5117H363.859V42.4004ZM360.277 48.1562C360.811 48.1426 361.33 48.1221 361.836 48.0947V42.4004H360.277V48.1562ZM380.266 52.1348H379.186V39.9531H380.266V52.1348ZM373.799 40.8965C374.4 40.901 374.936 41.0788 375.405 41.4297C375.875 41.776 376.242 42.2682 376.506 42.9062C376.77 43.5443 376.902 44.2871 376.902 45.1348C376.902 45.9824 376.77 46.7253 376.506 47.3633C376.242 48.0013 375.875 48.4935 375.405 48.8398C374.936 49.1862 374.4 49.3594 373.799 49.3594C373.197 49.3594 372.66 49.1862 372.186 48.8398C371.716 48.4935 371.349 48.0013 371.085 47.3633C370.825 46.7253 370.695 45.9824 370.695 45.1348C370.695 44.2871 370.825 43.5443 371.085 42.9062C371.349 42.2682 371.716 41.776 372.186 41.4297C372.655 41.0788 373.193 40.901 373.799 40.8965ZM373.799 41.8535C373.393 41.8581 373.033 41.9971 372.719 42.2705C372.409 42.5394 372.167 42.9222 371.994 43.4189C371.821 43.9111 371.734 44.4831 371.734 45.1348C371.734 45.7865 371.821 46.3607 371.994 46.8574C372.167 47.3496 372.411 47.7301 372.726 47.999C373.04 48.2679 373.398 48.4023 373.799 48.4023C374.2 48.4023 374.558 48.2679 374.872 47.999C375.187 47.7301 375.43 47.3496 375.604 46.8574C375.777 46.3607 375.863 45.7865 375.863 45.1348C375.863 44.4831 375.777 43.9111 375.604 43.4189C375.43 42.9222 375.187 42.5394 374.872 42.2705C374.562 41.9971 374.204 41.8581 373.799 41.8535ZM386.691 43.6855C386.691 44.3555 386.84 45.0231 387.136 45.6885C387.432 46.3493 387.831 46.9395 388.332 47.459C388.838 47.974 389.389 48.3613 389.986 48.6211L389.385 49.4688C388.669 49.1406 388.024 48.6462 387.45 47.9854C386.876 47.32 386.448 46.5703 386.165 45.7363C385.882 46.6296 385.454 47.4385 384.88 48.1631C384.31 48.8831 383.679 49.4186 382.986 49.7695L382.344 48.9219C382.918 48.6439 383.453 48.2246 383.95 47.6641C384.451 47.1035 384.853 46.4723 385.153 45.7705C385.454 45.0641 385.607 44.3691 385.611 43.6855V42.0996H382.74V41.2109H389.59V42.0996H386.691V43.6855ZM392.365 52.1074H391.285V39.9531H392.365V52.1074ZM409.031 46.5293H404.014V47.8281C405.171 47.8783 406.069 48.0879 406.707 48.457C407.35 48.8216 407.673 49.3229 407.678 49.9609C407.673 50.4076 407.505 50.7881 407.172 51.1025C406.839 51.4215 406.361 51.6631 405.736 51.8271C405.112 51.9958 404.365 52.0801 403.494 52.0801C402.619 52.0801 401.867 51.9958 401.238 51.8271C400.609 51.6631 400.129 51.4215 399.796 51.1025C399.463 50.7881 399.297 50.4076 399.297 49.9609C399.297 49.3229 399.616 48.8216 400.254 48.457C400.892 48.0879 401.794 47.8783 402.961 47.8281V46.5293H397.957V45.6406H409.031V46.5293ZM403.494 48.6484C402.842 48.653 402.284 48.7077 401.819 48.8125C401.354 48.9173 400.999 49.0677 400.753 49.2637C400.507 49.4551 400.386 49.6875 400.391 49.9609C400.386 50.2298 400.507 50.46 400.753 50.6514C400.999 50.8428 401.354 50.9886 401.819 51.0889C402.289 51.1937 402.847 51.2461 403.494 51.2461C404.132 51.2461 404.684 51.1937 405.148 51.0889C405.618 50.9886 405.976 50.8428 406.222 50.6514C406.472 50.46 406.598 50.2298 406.598 49.9609C406.598 49.6921 406.472 49.4596 406.222 49.2637C405.976 49.0677 405.62 48.9173 405.155 48.8125C404.69 48.7077 404.137 48.653 403.494 48.6484ZM408.047 41.4023H404.191C404.214 41.8444 404.424 42.2546 404.82 42.6328C405.217 43.0065 405.734 43.3187 406.372 43.5693C407.01 43.8154 407.691 43.9772 408.416 44.0547L408.02 44.9023C407.345 44.8203 406.705 44.6699 406.099 44.4512C405.493 44.2279 404.962 43.943 404.506 43.5967C404.05 43.2503 403.713 42.8584 403.494 42.4209C403.28 42.8584 402.945 43.2503 402.489 43.5967C402.034 43.943 401.503 44.2279 400.896 44.4512C400.29 44.6699 399.648 44.8203 398.969 44.9023L398.586 44.0547C399.297 43.9772 399.969 43.8154 400.603 43.5693C401.241 43.3187 401.758 43.0042 402.154 42.626C402.555 42.2477 402.77 41.8398 402.797 41.4023H398.969V40.5273H408.047V41.4023ZM417.508 51H416.264V42.3867H416.209L413.803 43.9863V42.7422L416.264 41.1016H417.508V51Z" fill="#333236"/>
<path d="M440 26.5H475.5V65.5H440C438.067 65.5 436.5 63.933 436.5 62V30C436.5 28.067 438.067 26.5 440 26.5Z" fill="white" stroke="#D9D9D9"/>
<path d="M454.113 45.9994L459.134 51.0212C459.267 51.1536 459.331 51.3113 459.328 51.4942C459.325 51.6771 459.257 51.8348 459.124 51.9673C458.992 52.0998 458.834 52.166 458.651 52.166C458.468 52.166 458.31 52.0998 458.178 51.9673L453.074 46.8532C452.954 46.7327 452.864 46.5976 452.806 46.4481C452.748 46.2985 452.719 46.1489 452.719 45.9994C452.719 45.8498 452.748 45.7002 452.806 45.5506C452.864 45.4011 452.954 45.266 453.074 45.1455L458.188 40.0314C458.321 39.899 458.477 39.8344 458.656 39.8378C458.836 39.8413 458.992 39.9092 459.124 40.0417C459.257 40.1742 459.323 40.3318 459.323 40.5147C459.323 40.6976 459.257 40.8553 459.124 40.9878L454.113 45.9994Z" fill="#D9D9D9"/>
<path d="M512 26.5C513.933 26.5 515.5 28.067 515.5 30V62C515.5 63.933 513.933 65.5 512 65.5H476.5V26.5H512Z" fill="white" stroke="#D9D9D9"/>
<path d="M497.887 46.0006L492.866 40.9788C492.733 40.8464 492.669 40.6887 492.672 40.5058C492.675 40.3229 492.743 40.1652 492.876 40.0327C493.008 39.9002 493.166 39.834 493.349 39.834C493.532 39.834 493.69 39.9002 493.822 40.0327L498.926 45.1468C499.046 45.2673 499.136 45.4024 499.194 45.5519C499.252 45.7015 499.281 45.8511 499.281 46.0006C499.281 46.1502 499.252 46.2998 499.194 46.4494C499.136 46.5989 499.046 46.734 498.926 46.8545L493.812 51.9686C493.679 52.101 493.523 52.1656 493.344 52.1622C493.164 52.1587 493.008 52.0908 492.876 51.9583C492.743 51.8258 492.677 51.6682 492.677 51.4853C492.677 51.3024 492.743 51.1447 492.876 51.0122L497.887 46.0006Z" fill="#D9D9D9"/>
</svg>
