<svg width="584" height="344" viewBox="0 0 584 344" fill="none" xmlns="http://www.w3.org/2000/svg">
<rect width="584" height="344" rx="16" fill="white"/>
<path d="M39.5703 43.125C39.5703 45.125 39.8828 46.8906 40.5078 48.4219C41.1406 49.9531 42.1641 51.0938 43.5781 51.8438L41.8203 54.2109C40.0781 53.2656 38.8281 51.6484 38.0703 49.3594C37.6719 50.5859 37.1445 51.668 36.4883 52.6055C35.832 53.5352 35.0391 54.2812 34.1094 54.8438L32.2344 52.6641C33.7422 51.7578 34.8516 50.4727 35.5625 48.8086C36.2812 47.1367 36.6484 45.3125 36.6641 43.3359V39.6562H39.5703V43.125ZM51.125 59.1562H48.2656V48.5391H46.4141V58.1719H43.6016V38.1328H46.4141V46.1484H48.2656V37.8281H51.125V59.1562ZM72.8984 56.7891H53.375V54.3281H61.6016V51.1172H55.625V43.9453H67.6953V41.6016H55.6016V39.2109H70.6484V46.2891H58.625V48.6797H71.1406V51.1172H64.5781V54.3281H72.8984V56.7891ZM93.6172 50.6016H85.5312V54.3047H82.5078V50.6016H74.0938V48.2109H93.6172V50.6016ZM91.4609 58.7812H76.4141V52.4062H79.4375V56.3672H91.4609V58.7812ZM83.8438 38.2266C85.375 38.2344 86.7188 38.4219 87.875 38.7891C89.0391 39.1484 89.9414 39.6602 90.582 40.3242C91.2227 40.9883 91.5469 41.7656 91.5547 42.6562C91.5469 43.5547 91.2227 44.3359 90.582 45C89.9414 45.6641 89.0391 46.1758 87.875 46.5352C86.7188 46.8867 85.375 47.0625 83.8438 47.0625C82.3047 47.0625 80.9492 46.8867 79.7773 46.5352C78.6133 46.1758 77.7109 45.6641 77.0703 45C76.4297 44.3359 76.1094 43.5547 76.1094 42.6562C76.1094 41.7656 76.4297 40.9883 77.0703 40.3242C77.7109 39.6602 78.6133 39.1484 79.7773 38.7891C80.9492 38.4219 82.3047 38.2344 83.8438 38.2266ZM83.8438 40.5938C82.4297 40.5938 81.3242 40.7734 80.5273 41.1328C79.7305 41.4844 79.3359 41.9922 79.3438 42.6562C79.3359 43.3047 79.7305 43.8047 80.5273 44.1562C81.332 44.5 82.4375 44.6719 83.8438 44.6719C85.2344 44.6719 86.332 44.5 87.1367 44.1562C87.9414 43.8047 88.3438 43.3047 88.3438 42.6562C88.3438 41.9922 87.9414 41.4844 87.1367 41.1328C86.3398 40.7734 85.2422 40.5938 83.8438 40.5938ZM118.836 59.1562H116V48.4453H113.938V58.125H111.195V38.1797H113.938V46.0547H116V37.8281H118.836V59.1562ZM108.945 42.7031H104V51.8086C105.125 51.793 106.156 51.75 107.094 51.6797C108.031 51.6094 108.984 51.4844 109.953 51.3047L110.164 53.7422C108.969 53.9688 107.797 54.1211 106.648 54.1992C105.5 54.2695 104.109 54.3125 102.477 54.3281H101V40.2891H108.945V42.7031ZM129.43 42.6562C129.43 43.9922 129.633 45.2852 130.039 46.5352C130.445 47.7773 131.051 48.8828 131.855 49.8516C132.668 50.8125 133.656 51.5391 134.82 52.0312L133.062 54.4219C131.875 53.8828 130.852 53.1133 129.992 52.1133C129.141 51.1055 128.465 49.9219 127.965 48.5625C127.465 50.0469 126.77 51.3359 125.879 52.4297C124.996 53.5234 123.922 54.3594 122.656 54.9375L120.852 52.4531C122.055 51.9453 123.07 51.1914 123.898 50.1914C124.727 49.1836 125.348 48.0312 125.762 46.7344C126.184 45.4375 126.398 44.0781 126.406 42.6562V39.4688H129.43V42.6562ZM138.992 59.2031H135.969V37.8281H138.992V59.2031ZM161.398 56.6719H141.875V54.2344H150.102V50.2969H143.938V39.1875H146.938V42.4922H156.242V39.1875H159.219V50.2969H153.078V54.2344H161.398V56.6719ZM156.242 47.9062V44.8828H146.938V47.9062H156.242ZM180.008 50.0859H164.914V39.6094H179.844V42.0234H167.867V47.6953H180.008V50.0859ZM182.141 56.5547H162.617V54.0938H182.141V56.5547Z" fill="#333236"/>
<path d="M46.0977 92.7441V108.494H44.498V100.355H42.459V107.686H40.9297V93.0605H42.459V98.9844H44.498V92.7441H46.0977ZM33.1074 104.715V94.6426H39.0137V95.9961H34.7773V103.291C36.7109 103.282 38.1699 103.194 39.8574 102.869L39.9805 104.24C38.0908 104.636 36.4561 104.697 34.1621 104.715H33.1074ZM53.9199 96.752C53.9023 99.626 55.6426 102.526 58.0859 103.607L57.084 104.926C55.2734 104.064 53.8408 102.298 53.1025 100.145C52.373 102.456 50.9229 104.354 49.0332 105.277L48.0137 103.871C50.4922 102.772 52.2324 99.7578 52.2324 96.752V94.0625H53.9199V96.752ZM59.5098 108.529V92.7441H61.1797V108.529H59.5098ZM78.1074 105.154V106.543H63.6934V105.154H70.0391V101.92H65.3457V93.8164H67.0156V96.5234H74.75V93.8164H76.4023V101.92H71.6914V105.154H78.1074ZM67.0156 100.566H74.75V97.877H67.0156V100.566ZM92.0117 100.215V101.586H81.043V94.1504H91.8711V95.5215H82.6953V100.215H92.0117ZM79.25 106.42V105.031H93.6641V106.42H79.25ZM112.244 92.7441V108.529H110.574V92.7441H112.244ZM99.7461 99.4414C99.7461 96.0752 101.442 93.9307 103.824 93.9219C106.162 93.9307 107.885 96.0752 107.885 99.4414C107.885 102.843 106.162 104.987 103.824 104.979C101.442 104.987 99.7461 102.843 99.7461 99.4414ZM101.363 99.4414C101.354 101.946 102.356 103.484 103.824 103.484C105.266 103.484 106.268 101.946 106.268 99.4414C106.268 96.9717 105.266 95.4248 103.824 95.416C102.356 95.4248 101.354 96.9717 101.363 99.4414ZM129.154 100.812V102.148H114.74V100.812H129.154ZM116.551 94.4141V93.0957H127.344V96.9805H118.238V98.334H127.66V99.6172H116.586V95.75H125.674V94.4141H116.551ZM116.656 108.301V103.432H127.361V108.301H116.656ZM118.309 106.947H125.709V104.768H118.309V106.947Z" fill="#333236"/>
<rect x="32.5" y="122.5" width="519" height="49" rx="7.5" fill="white"/>
<rect x="32.5" y="122.5" width="519" height="49" rx="7.5" stroke="#D9D9D9"/>
<path d="M59.7344 146.094H50.1719V141.094H51.4219V145.078H59.7344V146.094ZM61.2188 149.125H57.9219V154.266H56.7031V149.125H53.0938V154.266H51.875V149.125H48.5625V148.109H61.2188V149.125ZM75.1094 152.484H62.3906V151.438H75.1094V152.484ZM73.8906 142.797H71.6875V147.656H73.8594V148.656H63.5469V147.656H65.7188V142.797H63.5156V141.781H73.8906V142.797ZM70.4844 147.656V142.797H66.9375V147.656H70.4844ZM88.9375 152.547H76.2188V151.516H81.9375V148.891H77.8125V144.609H86.125V142.422H77.7812V141.406H87.3281V145.609H79.0312V147.875H87.6562V148.891H83.1406V151.516H88.9375V152.547ZM99.1406 148.75H97.9531V144.984H95.8281V143.969H97.9531V140.688H99.1406V148.75ZM94.1562 143.359C94.1562 143.87 94.2656 144.38 94.4844 144.891C94.7083 145.396 95.0286 145.857 95.4453 146.273C95.8672 146.685 96.3646 147.01 96.9375 147.25L96.2969 148.188C95.6615 147.922 95.1146 147.547 94.6562 147.062C94.1979 146.578 93.8464 146.026 93.6016 145.406C93.3516 146.104 92.9844 146.727 92.5 147.273C92.0156 147.815 91.4375 148.234 90.7656 148.531L90.1094 147.562C90.6979 147.312 91.2083 146.966 91.6406 146.523C92.0729 146.076 92.401 145.576 92.625 145.023C92.8542 144.471 92.9688 143.917 92.9688 143.359V142.531H90.375V141.516H96.6094V142.531H94.1562V143.359ZM101.844 148.875H100.672V140.375H101.844V148.875ZM101.844 154.266H100.641V150.484H92.4844V149.484H101.844V154.266ZM115.125 148.891H105.516V141.578H114.969V142.609H106.766V144.672H114.672V145.656H106.766V147.891H115.125V148.891ZM116.594 152.453H103.875V151.438H116.594V152.453Z" fill="#333236"/>
<rect x="32" y="188" width="30" height="30" rx="15" fill="#7AC555"/>
<path d="M44.5497 206.15L53.0247 197.675C53.2247 197.475 53.4622 197.375 53.7372 197.375C54.0122 197.375 54.2497 197.475 54.4497 197.675C54.6497 197.875 54.7497 198.113 54.7497 198.388C54.7497 198.663 54.6497 198.9 54.4497 199.1L45.2497 208.3C45.0497 208.5 44.8164 208.6 44.5497 208.6C44.2831 208.6 44.0497 208.5 43.8497 208.3L39.5497 204C39.3497 203.8 39.2539 203.562 39.2622 203.287C39.2706 203.012 39.3747 202.775 39.5747 202.575C39.7747 202.375 40.0122 202.275 40.2872 202.275C40.5622 202.275 40.7997 202.375 40.9997 202.575L44.5497 206.15Z" fill="white"/>
<rect x="70" y="188" width="30" height="30" rx="15" fill="#760DDE"/>
<rect x="108" y="188" width="30" height="30" rx="15" fill="#FFA500"/>
<rect x="146" y="188" width="30" height="30" rx="15" fill="#76A5EA"/>
<rect x="184" y="188" width="30" height="30" rx="15" fill="#E876EA"/>
<rect x="32.5" y="258.5" width="255" height="53" rx="7.5" fill="white"/>
<rect x="32.5" y="258.5" width="255" height="53" rx="7.5" stroke="#D9D9D9"/>
<path d="M152.094 281.031C152.086 282.352 153.344 283.508 155.391 283.938L154.781 285.094C153.172 284.727 151.984 283.922 151.367 282.859C150.766 284.016 149.562 284.898 147.906 285.281L147.281 284.125C149.352 283.68 150.602 282.43 150.609 281.031H147.594V279.859H150.609V278.359H152.094V279.859H155.094V281.031H152.094ZM146.672 286.141C149.328 286.141 152.844 286.117 155.891 285.734L156 286.812C154.719 287.023 153.398 287.156 152.109 287.234V291.906H150.625V287.312C149.281 287.367 148 287.375 146.875 287.375L146.672 286.141ZM156.859 292.328V278.344H158.328V292.328H156.859ZM173.328 289.328V290.547H160.516V289.328H166.125V286H167.594V289.328H173.328ZM160.953 285.031C163.648 284.578 166.055 282.5 166.062 280.281V279.219H167.625V280.281C167.625 282.5 170.062 284.578 172.766 285.031L172.125 286.25C169.852 285.805 167.773 284.398 166.852 282.484C165.93 284.391 163.867 285.805 161.609 286.25L160.953 285.031Z" fill="#787486"/>
<rect x="296" y="258" width="256" height="54" rx="8" fill="#228DFF"/>
<path d="M415.047 280.891C415.055 282.414 415.945 283.953 417.797 284.656L416.875 285.984C415.617 285.508 414.742 284.602 414.234 283.508C413.719 284.766 412.797 285.844 411.453 286.406L410.516 285.078C412.461 284.219 413.367 282.453 413.375 280.891V279.141H415.047V280.891ZM413.109 289.766C413.102 288.141 414.977 287.172 417.953 287.172C420.906 287.172 422.789 288.141 422.797 289.766C422.789 291.398 420.906 292.375 417.953 292.375C414.977 292.375 413.102 291.398 413.109 289.766ZM414.844 289.766C414.836 290.602 415.992 291.055 417.953 291.047C419.883 291.055 421.039 290.602 421.047 289.766C421.039 288.938 419.883 288.484 417.953 288.484C415.992 288.484 414.836 288.938 414.844 289.766ZM418.031 286.5V278.547H419.656V281.844H421.062V278.281H422.719V286.938H421.062V283.266H419.656V286.5H418.031ZM429.641 280.297C429.633 282.219 430.758 283.977 432.969 284.672L432.031 286.031C430.492 285.484 429.414 284.453 428.812 283.117C428.188 284.656 427.008 285.867 425.297 286.469L424.375 285.062C426.711 284.297 427.883 282.414 427.891 280.375V279.031H429.641V280.297ZM426.719 289.672C426.703 287.953 428.539 286.945 431.516 286.953C434.508 286.945 436.336 287.953 436.344 289.672C436.336 291.391 434.508 292.375 431.516 292.375C428.539 292.375 426.703 291.391 426.719 289.672ZM428.438 289.672C428.43 290.531 429.555 291.008 431.516 291.016C433.492 291.008 434.609 290.531 434.609 289.672C434.609 288.781 433.492 288.305 431.516 288.297C429.555 288.305 428.43 288.781 428.438 289.672ZM431.75 282.422V281H434.562V278.266H436.297V286.578H434.562V282.422H431.75Z" fill="white"/>
</svg>
