<svg width="18" height="18" viewBox="0 0 18 18" fill="none" xmlns="http://www.w3.org/2000/svg">
<path d="M7.67244 10.3271H1.92282C1.5504 10.3271 1.23611 10.199 0.979945 9.94285C0.723784 9.68669 0.595703 9.37241 0.595703 9.00001C0.595703 8.62761 0.723784 8.31333 0.979945 8.05717C1.23611 7.80101 1.5504 7.67293 1.92282 7.67293H7.67244V1.9233C7.67244 1.55088 7.80052 1.23659 8.05668 0.980433C8.31284 0.724272 8.62712 0.596191 8.99952 0.596191C9.37192 0.596191 9.6862 0.724272 9.94237 0.980433C10.1985 1.23659 10.3266 1.55088 10.3266 1.9233V7.67293H16.0762C16.4487 7.67293 16.7629 7.80101 17.0191 8.05717C17.2753 8.31333 17.4033 8.62761 17.4033 9.00001C17.4033 9.37241 17.2753 9.68669 17.0191 9.94285C16.7629 10.199 16.4487 10.3271 16.0762 10.3271H10.3266V16.0767C10.3266 16.4491 10.1985 16.7634 9.94237 17.0196C9.6862 17.2758 9.37192 17.4038 8.99952 17.4038C8.62712 17.4038 8.31284 17.2758 8.05668 17.0196C7.80052 16.7634 7.67244 16.4491 7.67244 16.0767V10.3271Z" fill="#228DFF"/>
</svg>
