<svg width="100" height="100" viewBox="0 0 100 100" fill="none" xmlns="http://www.w3.org/2000/svg">
<path d="M49.9992 45.8332L21.0809 27.3316C20.2209 26.7814 19.3435 26.7333 18.4487 27.1873C17.554 27.6413 17.0666 28.3625 16.9864 29.3507C16.9063 29.8689 16.965 30.3683 17.1627 30.8491C17.3603 31.3298 17.6968 31.7171 18.1723 32.0109L47.9721 51.0495C48.6164 51.4394 49.2929 51.6344 50.0017 51.6344C50.7106 51.6344 51.3855 51.4394 52.0264 51.0495L81.8262 32.0109C82.3016 31.7171 82.6448 31.3298 82.8558 30.8491C83.0668 30.3683 83.1189 29.8689 83.0121 29.3507C82.9319 28.3625 82.4445 27.648 81.5498 27.2074C80.655 26.7667 79.7776 26.8215 78.9176 27.3717L49.9992 45.8332ZM79.1659 93.7497C73.963 93.7497 69.5373 91.9255 65.8887 88.2771C62.2403 84.6285 60.416 80.2028 60.416 74.9999C60.416 69.797 62.2403 65.3713 65.8887 61.7227C69.5373 58.0742 73.963 56.25 79.1659 56.25C84.3688 56.25 88.7946 58.0742 92.4431 61.7227C96.0916 65.3713 97.9158 69.797 97.9158 74.9999C97.9158 80.2028 96.0916 84.6285 92.4431 88.2771C88.7946 91.9256 84.3688 93.7498 79.1659 93.7498V93.7497ZM69.8711 76.8428H88.47C88.966 76.8428 89.3955 76.6585 89.7587 76.2899C90.122 75.9214 90.3036 75.4914 90.3036 74.9999C90.3036 74.5084 90.1194 74.0784 89.7508 73.7099C89.3822 73.3413 88.9522 73.157 88.4607 73.157H69.8619C69.3659 73.157 68.9363 73.3413 68.5731 73.7099C68.2098 74.0784 68.0282 74.5084 68.0282 74.9999C68.0282 75.4914 68.2125 75.9214 68.581 76.2899C68.9496 76.6585 69.3797 76.8428 69.8711 76.8428ZM17.9481 81.2498C15.8768 81.2498 14.1036 80.5123 12.6286 79.0372C11.1536 77.5622 10.416 75.789 10.416 73.7177V26.2821C10.416 24.2108 11.1536 22.4376 12.6286 20.9626C14.1036 19.4875 15.8768 18.75 17.9481 18.75H82.0504C84.1217 18.75 85.8949 19.4875 87.3699 20.9626C88.8449 22.4376 89.5825 24.2108 89.5825 26.2821V50.1122C87.9319 49.3804 86.2385 48.8315 84.5024 48.4656C82.7663 48.0997 80.9874 47.9167 79.1659 47.9167C71.6213 47.9167 65.2213 50.5444 59.9659 55.7999C54.7104 61.0553 52.0827 67.4553 52.0827 74.9999C52.0827 76.0416 52.1468 77.0832 52.2751 78.1248C52.4033 79.1665 52.6223 80.2081 52.9321 81.2498H17.9481Z" fill="#D9D9D9"/>
</svg>
